<?xml version="1.0" encoding="UTF-8"?>
<svg version="1.1" xmlns="http://www.w3.org/2000/svg" width="97" height="35">
<path d="M0 0 C2.57875218 1.03150087 3.78770365 1.64971102 5.25 4.0625 C6 6 6 6 6 7 C12.435 6.505 12.435 6.505 19 6 C19.495 9.465 19.495 9.465 20 13 C21.32 13 22.64 13 24 13 C24 11.35 24 9.7 24 8 C30.5508985 8.45759953 36.6753842 9.2100144 43 11 C42.45484328 18.08703739 40.39081395 24.32796106 38 31 C38.66 31 39.32 31 40 31 C40 31.66 40 32.32 40 33 C34.70769231 35.21538462 34.70769231 35.21538462 31.125 34.125 C30.42375 33.75375 29.7225 33.3825 29 33 C29 32.34 29 31.68 29 31 C28.35933594 31.02320312 27.71867187 31.04640625 27.05859375 31.0703125 C21.59684749 31.18426846 17.14744209 30.86184075 12 29 C11.67 28.67 11.34 28.34 11 28 C9.50794753 27.63272554 8.00601352 27.3050154 6.5 27 C2.11111111 26.11111111 2.11111111 26.11111111 1 25 C0.34 26.98 -0.32 28.96 -1 31 C-4.48670834 29.8905928 -7.77484237 28.73662334 -11 27 C-11.66 27.99 -12.32 28.98 -13 30 C-15.69018316 30.77019559 -18.18131524 30.82103589 -21 31 C-21.33 30.67 -21.66 30.34 -22 30 C-24.33297433 29.95907063 -26.66705225 29.95758277 -29 30 C-29.33 30.99 -29.66 31.98 -30 33 C-33.32091002 34.70533217 -35.18492784 35 -39 35 C-39.38671875 34.10796875 -39.7734375 33.2159375 -40.171875 32.296875 C-40.69265625 31.12640625 -41.2134375 29.9559375 -41.75 28.75 C-42.26046875 27.58984375 -42.7709375 26.4296875 -43.296875 25.234375 C-44.92079795 22.15041124 -46.50611885 20.36918709 -49 18 C-50.25 14.75 -50.25 14.75 -51 12 C-43.89300406 7.92005789 -39.42033193 6.07688213 -31 7 C-28.4375 8.8125 -28.4375 8.8125 -27 11 C-26.01 12.485 -26.01 12.485 -25 14 C-24.855625 13.071875 -24.71125 12.14375 -24.5625 11.1875 C-22.78404007 7.55944174 -22.26143583 7.34032802 -18.625 6.0625 C-15.26990483 5.03577355 -13.33894494 5.03556371 -10 6 C-6.1696916 6.40694193 -6.1696916 6.40694193 -4.296875 4.6875 C-3.53117187 3.8521875 -3.53117187 3.8521875 -2.75 3 C-2.22921875 2.443125 -1.7084375 1.88625 -1.171875 1.3125 C-0.78515625 0.879375 -0.3984375 0.44625 0 0 Z " fill="#0D0D0D" transform="translate(52,0)"/>
<path d="M0 0 C2.75 1.5625 2.75 1.5625 4 4 C3.75 7.75 3.75 7.75 3 11 C3.99 10.34 4.98 9.68 6 9 C9.1875 9.375 9.1875 9.375 12 10 C11.67 7.69 11.34 5.38 11 3 C12.65 2.67 14.3 2.34 16 2 C16.495 3.485 16.495 3.485 17 5 C17.66 4.01 18.32 3.02 19 2 C20.32 2.66 21.64 3.32 23 4 C22.690625 4.598125 22.38125 5.19625 22.0625 5.8125 C20.89790296 8.08956772 20.89790296 8.08956772 20 11 C22.38314889 12.45636876 24.69534069 13.86459586 27.25 15 C29 16 29 16 30 19 C30.34227417 20.33106622 30.67751743 21.66400079 31 23 C28 24 28 24 25.95703125 23.22265625 C24.89548828 22.64837891 24.89548828 22.64837891 23.8125 22.0625 C23.09707031 21.68222656 22.38164063 21.30195313 21.64453125 20.91015625 C21.10183594 20.60980469 20.55914062 20.30945313 20 20 C19.34 20.99 18.68 21.98 18 23 C15.30981684 23.77019559 12.81868476 23.82103589 10 24 C9.67 23.67 9.34 23.34 9 23 C6.66702567 22.95907063 4.33294775 22.95758277 2 23 C1.67 23.99 1.34 24.98 1 26 C-2.32091002 27.70533217 -4.18492784 28 -8 28 C-8.38671875 27.10796875 -8.7734375 26.2159375 -9.171875 25.296875 C-9.69265625 24.12640625 -10.2134375 22.9559375 -10.75 21.75 C-11.26046875 20.58984375 -11.7709375 19.4296875 -12.296875 18.234375 C-13.92079795 15.15041124 -15.50611885 13.36918709 -18 11 C-19.25 7.75 -19.25 7.75 -20 5 C-12.86710459 0.90518967 -8.44090839 -0.87148022 0 0 Z " fill="#0A0A0A" transform="translate(21,7)"/>
<path d="M0 0 C3 1 3 1 4.1875 3.0625 C4.455625 3.701875 4.72375 4.34125 5 5 C6.5159375 4.505 6.5159375 4.505 8.0625 4 C11.75479911 2.92998679 15.15248207 2.84295845 19 3 C19.62457273 6.43515002 20 9.49064814 20 13 C23.465 12.505 23.465 12.505 27 12 C29 15 29 15 28.75 17.5625 C28 20 28 20 26 22 C22.875 22.125 22.875 22.125 20 22 C20 22.66 20 23.32 20 24 C18.68 24 17.36 24 16 24 C15.505 21.525 15.505 21.525 15 19 C14.01 18.67 13.02 18.34 12 18 C12 17.34 12 16.68 12 16 C11.34 16 10.68 16 10 16 C10 17.65 10 19.3 10 21 C8.68 21 7.36 21 6 21 C6 19.68 6 18.36 6 17 C5.01 17.33 4.02 17.66 3 18 C0.3071504 18.17812624 -2.29441368 18.08727698 -5 18 C-6 17 -6 17 -6.0625 13.9375 C-6.041875 12.968125 -6.02125 11.99875 -6 11 C-5.34 10.67 -4.68 10.34 -4 10 C-4 11.32 -4 12.64 -4 14 C-2.68 12.68 -1.36 11.36 0 10 C-0.99 9.67 -1.98 9.34 -3 9 C-3 8.34 -3 7.68 -3 7 C-2.34 7 -1.68 7 -1 7 C-1 6.34 -1 5.68 -1 5 C-1.66 4.67 -2.32 4.34 -3 4 C-2.01 2.68 -1.02 1.36 0 0 Z " fill="#232323" transform="translate(52,3)"/>
<path d="M0 0 C2.5 1.5 2.5 1.5 4 3 C3.37190083 9.65785124 3.37190083 9.65785124 1.4375 11.4375 C-0.24375021 12.92389103 -0.24375021 12.92389103 -0.07421875 15.26171875 C0.11720703 16.46248047 0.11720703 16.46248047 0.3125 17.6875 C0.43238281 18.49574219 0.55226563 19.30398437 0.67578125 20.13671875 C0.78277344 20.75160156 0.88976563 21.36648437 1 22 C-0.32 22 -1.64 22 -3 22 C-4.00460531 19.87717331 -5.00355602 17.75166979 -6 15.625 C-6.556875 14.44164062 -7.11375 13.25828125 -7.6875 12.0390625 C-9 9 -9 9 -9 7 C-9.99 7 -10.98 7 -12 7 C-12.33 5.68 -12.66 4.36 -13 3 C-8.50241928 -0.37318554 -5.43948065 -0.51804578 0 0 Z " fill="#EEEEEE" transform="translate(19,9)"/>
<path d="M0 0 C2.62187494 1.04874998 3.79371361 1.64931313 5.25 4.125 C5.4975 4.74375 5.745 5.3625 6 6 C5.01 6.33 4.02 6.66 3 7 C2.67 6.01 2.34 5.02 2 4 C1.34 3.67 0.68 3.34 0 3 C-1.12516085 4.83284443 -1.12516085 4.83284443 -2 7 C-1.67 7.99 -1.34 8.98 -1 10 C-2.98 10.99 -4.96 11.98 -7 13 C-7 12.34 -7 11.68 -7 11 C-9.34533951 10.23043864 -9.34533951 10.23043864 -12 10 C-13.8354799 11.33378575 -13.8354799 11.33378575 -15 13 C-15 11.68 -15 10.36 -15 9 C-16.98 9.99 -16.98 9.99 -19 11 C-19 12.98 -19 14.96 -19 17 C-19.9075 16.95875 -20.815 16.9175 -21.75 16.875 C-24.8782046 16.99531556 -26.38614006 17.3914708 -29 19 C-28.67 17.35 -28.34 15.7 -28 14 C-27.01 14 -26.02 14 -25 14 C-24.855625 13.071875 -24.71125 12.14375 -24.5625 11.1875 C-22.78404007 7.55944174 -22.26143583 7.34032802 -18.625 6.0625 C-15.26990483 5.03577355 -13.33894494 5.03556371 -10 6 C-6.1696916 6.40694193 -6.1696916 6.40694193 -4.296875 4.6875 C-3.78640625 4.130625 -3.2759375 3.57375 -2.75 3 C-2.22921875 2.443125 -1.7084375 1.88625 -1.171875 1.3125 C-0.78515625 0.879375 -0.3984375 0.44625 0 0 Z " fill="#070707" transform="translate(52,0)"/>
<path d="M0 0 C2.97 0.495 2.97 0.495 6 1 C6.66 2.98 7.32 4.96 8 7 C8.33 5.68 8.66 4.36 9 3 C10.65 3 12.3 3 14 3 C12.23536928 9.10737442 10.30442525 15.07433507 8 21 C7.01 21 6.02 21 5 21 C4.67 20.01 4.34 19.02 4 18 C2.68 18 1.36 18 0 18 C0.50603992 15.83125748 0.99983813 14.00032373 2 12 C2.30442659 7.53507661 1.5883272 4.1693589 0 0 Z " fill="#E8E8E8" transform="translate(79,10)"/>
<path d="M0 0 C1.32 0 2.64 0 4 0 C4.33 0.99 4.66 1.98 5 3 C5.66 2.01 6.32 1.02 7 0 C8.32 0.66 9.64 1.32 11 2 C10.690625 2.598125 10.38125 3.19625 10.0625 3.8125 C8.89790296 6.08956772 8.89790296 6.08956772 8 9 C10.9465385 10.80066242 13.88801935 12.50163895 17 14 C17 14.99 17 15.98 17 17 C12.76570244 15.68938409 8.92592596 14.05643741 5 12 C5 13.98 5 15.96 5 18 C3.68 18 2.36 18 1 18 C1.02320313 17.43152344 1.04640625 16.86304687 1.0703125 16.27734375 C1.16254656 12.33104352 1.12819621 8.85035236 -0.0625 5.0625 C-1 2 -1 2 0 0 Z " fill="#E7E7E7" transform="translate(33,9)"/>
<path d="M0 0 C1.32 0 2.64 0 4 0 C3.97679688 1.12019531 3.95359375 2.24039062 3.9296875 3.39453125 C3.91092763 4.86718084 3.89272766 6.33983763 3.875 7.8125 C3.85824219 8.55048828 3.84148437 9.28847656 3.82421875 10.04882812 C3.78925372 13.91246426 3.80602445 15.70903668 6 19 C4.68 19 3.36 19 2 19 C1.67 17.35 1.34 15.7 1 14 C0.01 13.67 -0.98 13.34 -2 13 C-2 12.34 -2 11.68 -2 11 C-2.66 11 -3.32 11 -4 11 C-4 12.65 -4 14.3 -4 16 C-5.32 16 -6.64 16 -8 16 C-7.34 11.05 -6.68 6.1 -6 1 C-4.35 1 -2.7 1 -1 1 C-0.67 0.67 -0.34 0.34 0 0 Z " fill="#E6E6E6" transform="translate(66,8)"/>
<path d="M0 0 C0.928125 0.20625 1.85625 0.4125 2.8125 0.625 C3.5625 3.375 3.5625 3.375 3.8125 6.625 C2.1875 9 2.1875 9 -0.1875 10.625 C-2.8125 11 -2.8125 11 -5.1875 10.625 C-5.8475 9.965 -6.5075 9.305 -7.1875 8.625 C-7 5.125 -7 5.125 -6.1875 1.625 C-3.1875 -0.375 -3.1875 -0.375 0 0 Z " fill="#CACACA" transform="translate(30.1875,16.375)"/>
<path d="M0 0 C2 3 2 3 1.75 5.5625 C1 8 1 8 -1 10 C-4 10.25 -4 10.25 -7 10 C-7.66 9.34 -8.32 8.68 -9 8 C-8.8125 5 -8.8125 5 -8 2 C-4.79191085 -0.1387261 -3.72301503 -0.47730962 0 0 Z " fill="#C3C3C3" transform="translate(79,15)"/>
<path d="M0 0 C2.31 0.33 4.62 0.66 7 1 C6.814375 1.639375 6.62875 2.27875 6.4375 2.9375 C6.293125 3.618125 6.14875 4.29875 6 5 C6.33 5.33 6.66 5.66 7 6 C7.99 7.485 7.99 7.485 9 9 C4.95807022 11.69461986 2.7948504 11.23200889 -2 11 C-3 10 -3 10 -3.0625 6.9375 C-3.041875 5.968125 -3.02125 4.99875 -3 4 C-2.34 3.67 -1.68 3.34 -1 3 C-1 4.32 -1 5.64 -1 7 C0.32 5.68 1.64 4.36 3 3 C2.01 2.67 1.02 2.34 0 2 C0 1.34 0 0.68 0 0 Z " fill="#E6E6E6" transform="translate(49,10)"/>
<path d="M0 0 C3.38023517 0 5.83468937 0.87455622 9 2 C7.625 4 7.625 4 6 6 C5.34 6 4.68 6 4 6 C3.67 5.01 3.34 4.02 3 3 C3 4.98 3 6.96 3 9 C5.97 9.495 5.97 9.495 9 10 C8.01 10.495 8.01 10.495 7 11 C7 12.65 7 14.3 7 16 C6.34 15.67 5.68 15.34 5 15 C5.33 14.01 5.66 13.02 6 12 C5.46375 11.9175 4.9275 11.835 4.375 11.75 C1.1647569 10.73623902 -1.26292392 8.92839451 -4 7 C-2.79618552 4.50638429 -1.54571278 2.31856917 0 0 Z " fill="#262626" transform="translate(44,11)"/>
<path d="M0 0 C1.98 0 3.96 0 6 0 C6 0.99 6 1.98 6 3 C5.01 2.67 4.02 2.34 3 2 C3.66 4.31 4.32 6.62 5 9 C3.906875 8.814375 2.81375 8.62875 1.6875 8.4375 C-1.93624133 7.7421932 -1.93624133 7.7421932 -5 9 C-5 7.35 -5 5.7 -5 4 C-2.525 4.495 -2.525 4.495 0 5 C0 3.35 0 1.7 0 0 Z " fill="#060606" transform="translate(76,8)"/>
<path d="M0 0 C1.98 0.66 3.96 1.32 6 2 C4.625 4 4.625 4 3 6 C2.34 6 1.68 6 1 6 C0.67 5.01 0.34 4.02 0 3 C-0.33 4.65 -0.66 6.3 -1 8 C-1.33 8 -1.66 8 -2 8 C-2.125 5.125 -2.125 5.125 -2 2 C-1.34 1.34 -0.68 0.68 0 0 Z " fill="#787878" transform="translate(47,11)"/>
<path d="M0 0 C1.98362069 2.91708924 1.9876191 4.12380904 1.625 7.75 C1.41875 8.8225 1.2125 9.895 1 11 C-0.32 11 -1.64 11 -3 11 C-2.11223998 7.30099992 -1.05418136 3.65449539 0 0 Z " fill="#D2D2D2" transform="translate(82,17)"/>
<path d="M0 0 C0.66 0.66 1.32 1.32 2 2 C1.875 4.9375 1.875 4.9375 1 8 C-0.32 8.99 -1.64 9.98 -3 11 C-2.01 7.37 -1.02 3.74 0 0 Z " fill="#2A2A2A" transform="translate(91,17)"/>
<path d="M0 0 C2.31 0.33 4.62 0.66 7 1 C6.67 2.32 6.34 3.64 6 5 C5.01 5 4.02 5 3 5 C3 4.34 3 3.68 3 3 C2.01 2.67 1.02 2.34 0 2 C0 1.34 0 0.68 0 0 Z " fill="#D2D2D2" transform="translate(49,10)"/>
<path d="M0 0 C1.32 0.33 2.64 0.66 4 1 C3.67 2.65 3.34 4.3 3 6 C2.01 5.67 1.02 5.34 0 5 C0 3.35 0 1.7 0 0 Z " fill="#2E2E2E" transform="translate(16,14)"/>
<path d="M0 0 C0.99 0 1.98 0 3 0 C2.67 2.64 2.34 5.28 2 8 C1.34 8 0.68 8 0 8 C0 5.36 0 2.72 0 0 Z " fill="#030303" transform="translate(92,11)"/>
</svg>
